<svg width="308" height="303" viewBox="0 0 308 303" fill="none" xmlns="http://www.w3.org/2000/svg">
<rect x="0.570312" y="0.5" width="307" height="302" rx="8" fill="white"/>
<rect x="24.5703" y="32.5" width="48" height="48" rx="4" fill="#4C7FBD"/>
<mask id="mask0_1476_256" style="mask-type:alpha" maskUnits="userSpaceOnUse" x="36" y="44" width="25" height="25">
<rect x="36.5703" y="44.5" width="24" height="24" fill="#D9D9D9"/>
</mask>
<g mask="url(#mask0_1476_256)">
<path d="M51.3203 56.3L55.3203 54L51.3203 51.7L47.3203 54L51.3203 56.3ZM51.3203 59.35L54.0703 57.75V55.65L51.3203 57.25L48.5703 55.65V57.75L51.3203 59.35ZM40.5703 48.5H56.5703C57.1203 48.5 57.5913 48.696 57.9833 49.088C58.3746 49.4793 58.5703 49.95 58.5703 50.5V62.5C58.5703 63.05 58.3746 63.521 57.9833 63.913C57.5913 64.3043 57.1203 64.5 56.5703 64.5H51.5703V62.5H56.5703V50.5H40.5703V51.5H38.5703V50.5C38.5703 49.95 38.7663 49.4793 39.1583 49.088C39.5496 48.696 40.0203 48.5 40.5703 48.5ZM38.5703 64.5H41.5703C41.5703 63.6667 41.2786 62.9583 40.6953 62.375C40.112 61.7917 39.4036 61.5 38.5703 61.5V64.5ZM43.5703 64.5H45.5703C45.5703 62.55 44.8913 60.8957 43.5333 59.537C42.1746 58.179 40.5203 57.5 38.5703 57.5V59.5C39.9536 59.5 41.1326 59.9873 42.1073 60.962C43.0826 61.9373 43.5703 63.1167 43.5703 64.5ZM38.5703 53.5V55.5C39.8203 55.5 40.9913 55.7373 42.0833 56.212C43.1746 56.6873 44.1246 57.329 44.9333 58.137C45.7413 58.9457 46.383 59.896 46.8583 60.988C47.333 62.0793 47.5703 63.25 47.5703 64.5H49.5703C49.5703 62.9833 49.2826 61.5583 48.7073 60.225C48.1326 58.8917 47.3453 57.725 46.3453 56.725C45.3453 55.725 44.1786 54.9377 42.8453 54.363C41.512 53.7877 40.087 53.5 38.5703 53.5Z" fill="white"/>
</g>
<path d="M33.1303 121.5V119.612H27.9143V116.508H32.5863V114.7H27.9143V111.692H33.1303V109.804H25.8663V121.5H33.1303ZM36.4387 121.5L38.1027 118.892L39.7827 121.5H42.0227L39.4147 117.596L42.1027 113.596H39.9107L38.2307 116.284L36.4867 113.596H34.2147L36.9347 117.628L34.2147 121.5H36.4387ZM43.2658 125.164H45.2178V120.444C45.7138 121.244 46.7378 121.708 47.9218 121.708C50.2738 121.708 51.6178 119.916 51.6178 117.452C51.6178 114.972 50.1458 113.356 47.9218 113.356C46.7218 113.356 45.6818 113.884 45.2018 114.796L45.0738 113.596H43.2658V125.164ZM45.2338 117.548C45.2338 116.124 46.1138 115.132 47.4578 115.132C48.8338 115.132 49.6498 116.14 49.6498 117.548C49.6498 118.956 48.8338 119.948 47.4578 119.948C46.1138 119.948 45.2338 118.972 45.2338 117.548ZM56.7081 121.708C58.7721 121.708 60.2121 120.668 60.5481 118.94H58.7401C58.5161 119.692 57.8121 120.108 56.7401 120.108C55.4441 120.108 54.7081 119.404 54.5641 118.012L60.5161 117.996V117.404C60.5161 114.94 59.0121 113.356 56.6441 113.356C54.3241 113.356 52.7081 115.068 52.7081 117.548C52.7081 119.996 54.3561 121.708 56.7081 121.708ZM56.6601 114.956C57.8281 114.956 58.5801 115.676 58.5801 116.764H54.6121C54.8041 115.58 55.5081 114.956 56.6601 114.956ZM67.0383 113.564C66.7183 113.484 66.4463 113.452 66.1743 113.452C65.1183 113.452 64.3663 113.98 64.0303 114.764L63.9183 113.612H62.0783V121.5H64.0303V117.66C64.0303 116.124 64.9103 115.372 66.3183 115.372H67.0383V113.564ZM69.3356 112.012C69.9756 112.012 70.5036 111.484 70.5036 110.828C70.5036 110.172 69.9756 109.66 69.3356 109.66C68.6636 109.66 68.1356 110.172 68.1356 110.828C68.1356 111.484 68.6636 112.012 69.3356 112.012ZM68.3596 121.5H70.3116V113.596H68.3596V121.5ZM75.8643 121.708C77.9283 121.708 79.3683 120.668 79.7043 118.94H77.8963C77.6723 119.692 76.9683 120.108 75.8963 120.108C74.6003 120.108 73.8643 119.404 73.7203 118.012L79.6723 117.996V117.404C79.6723 114.94 78.1683 113.356 75.8003 113.356C73.4803 113.356 71.8643 115.068 71.8643 117.548C71.8643 119.996 73.5123 121.708 75.8643 121.708ZM75.8163 114.956C76.9843 114.956 77.7363 115.676 77.7363 116.764H73.7683C73.9603 115.58 74.6643 114.956 75.8163 114.956ZM83.1866 121.5V117.244C83.1866 115.964 83.9226 115.132 85.1226 115.132C86.1306 115.132 86.7866 115.772 86.7866 117.1V121.5H88.7386V116.636C88.7386 114.588 87.7146 113.356 85.7306 113.356C84.6586 113.356 83.6986 113.82 83.2026 114.62L83.0426 113.596H81.2346V121.5H83.1866ZM90.1924 117.532C90.1924 120.044 91.7604 121.708 94.1604 121.708C96.2244 121.708 97.7604 120.444 98.0004 118.604H96.0324C95.8244 119.468 95.1364 119.948 94.1604 119.948C92.9124 119.948 92.1444 119.02 92.1444 117.532C92.1444 116.044 92.9764 115.1 94.2244 115.1C95.1524 115.1 95.8084 115.564 96.0324 116.46H97.9844C97.7764 114.556 96.3044 113.356 94.1444 113.356C91.8084 113.356 90.1924 115.084 90.1924 117.532ZM102.989 121.708C105.053 121.708 106.493 120.668 106.829 118.94H105.021C104.797 119.692 104.093 120.108 103.021 120.108C101.725 120.108 100.989 119.404 100.845 118.012L106.797 117.996V117.404C106.797 114.94 105.293 113.356 102.925 113.356C100.605 113.356 98.9893 115.068 98.9893 117.548C98.9893 119.996 100.637 121.708 102.989 121.708ZM102.941 114.956C104.109 114.956 104.861 115.676 104.861 116.764H100.893C101.085 115.58 101.789 114.956 102.941 114.956ZM111.608 121.708C112.808 121.708 113.832 121.18 114.312 120.268L114.44 121.5H116.232V109.596H114.296V114.604C113.8 113.82 112.824 113.356 111.72 113.356C109.336 113.356 107.896 115.116 107.896 117.58C107.896 120.028 109.32 121.708 111.608 121.708ZM112.04 119.916C110.68 119.916 109.848 118.924 109.848 117.516C109.848 116.108 110.68 115.1 112.04 115.1C113.4 115.1 114.28 116.092 114.28 117.516C114.28 118.94 113.4 119.916 112.04 119.916ZM124.85 121.5V117.308C124.85 115.852 124.834 114.748 124.722 114.044L127.682 121.5H129.57L132.546 114.028C132.434 114.86 132.434 115.548 132.434 117.9V121.5H134.418V109.804H132.402L128.626 119.116L124.85 109.804H122.866V121.5H124.85ZM140.255 121.708C142.319 121.708 143.759 120.668 144.095 118.94H142.287C142.063 119.692 141.359 120.108 140.287 120.108C138.991 120.108 138.255 119.404 138.111 118.012L144.063 117.996V117.404C144.063 114.94 142.559 113.356 140.191 113.356C137.871 113.356 136.255 115.068 136.255 117.548C136.255 119.996 137.903 121.708 140.255 121.708ZM140.207 114.956C141.375 114.956 142.127 115.676 142.127 116.764H138.159C138.351 115.58 139.055 114.956 140.207 114.956ZM147.577 121.5V117.244C147.577 115.964 148.313 115.132 149.513 115.132C150.521 115.132 151.177 115.772 151.177 117.1V121.5H153.129V116.636C153.129 114.588 152.105 113.356 150.121 113.356C149.049 113.356 148.089 113.82 147.593 114.62L147.433 113.596H145.625V121.5H147.577ZM157.735 121.5V115.228H159.271V113.596H157.735V111.132H155.783V113.596H154.263V115.228H155.783V121.5H157.735ZM159.942 117.532C159.942 119.996 161.718 121.692 164.166 121.692C166.614 121.692 168.39 119.996 168.39 117.532C168.39 115.068 166.614 113.372 164.166 113.372C161.718 113.372 159.942 115.068 159.942 117.532ZM161.894 117.532C161.894 116.092 162.822 115.116 164.166 115.116C165.51 115.116 166.438 116.092 166.438 117.532C166.438 118.972 165.51 119.948 164.166 119.948C162.822 119.948 161.894 118.972 161.894 117.532ZM174.898 113.564C174.578 113.484 174.306 113.452 174.034 113.452C172.978 113.452 172.226 113.98 171.89 114.764L171.778 113.612H169.938V121.5H171.89V117.66C171.89 116.124 172.77 115.372 174.178 115.372H174.898V113.564ZM175.611 119.1C175.611 120.652 176.859 121.708 178.827 121.708C180.779 121.708 182.139 120.716 182.139 119.116C182.139 117.9 181.467 117.292 180.139 116.988L178.715 116.652C178.043 116.492 177.691 116.204 177.691 115.756C177.691 115.164 178.139 114.812 178.907 114.812C179.659 114.812 180.107 115.244 180.123 115.916H181.979C181.963 114.38 180.763 113.356 178.987 113.356C177.163 113.356 175.851 114.284 175.851 115.836C175.851 117.1 176.539 117.772 177.963 118.092L179.387 118.428C180.091 118.588 180.299 118.876 180.299 119.276C180.299 119.852 179.803 120.22 178.891 120.22C177.995 120.22 177.483 119.788 177.467 119.1H175.611Z" fill="black"/>
<path d="M26.7543 149.5V145.648H31.0503V149.5H32.2263V140.824H31.0503V144.556H26.7543V140.824H25.5783V149.5H26.7543ZM34.5985 142.24C35.0065 142.24 35.3425 141.904 35.3425 141.496C35.3425 141.076 35.0065 140.752 34.5985 140.752C34.1905 140.752 33.8545 141.076 33.8545 141.496C33.8545 141.904 34.1905 142.24 34.5985 142.24ZM34.0465 149.5H35.1745V143.632H34.0465V149.5ZM36.4401 146.416C36.4401 148.06 37.4961 149.344 39.1641 149.344C40.0881 149.344 40.8561 148.936 41.2401 148.252V149.428C41.2401 150.544 40.5201 151.264 39.4161 151.264C38.4321 151.264 37.7841 150.76 37.6401 149.896H36.5121C36.7281 151.384 37.8201 152.284 39.4161 152.284C41.2161 152.284 42.3561 151.108 42.3561 149.26V143.632H41.3481L41.2641 144.628C40.8921 143.896 40.1601 143.464 39.2121 143.464C37.5081 143.464 36.4401 144.76 36.4401 146.416ZM37.5681 146.392C37.5681 145.312 38.2401 144.448 39.3681 144.448C40.5201 144.448 41.1921 145.264 41.1921 146.392C41.1921 147.544 40.4961 148.36 39.3561 148.36C38.2521 148.36 37.5681 147.496 37.5681 146.392ZM45.112 149.488V146.296C45.112 145.288 45.7 144.496 46.792 144.496C47.632 144.496 48.196 144.976 48.196 146.164V149.5H49.324V145.912C49.324 144.412 48.604 143.464 47.104 143.464C46.192 143.464 45.484 143.896 45.112 144.532V140.668H43.984V149.488H45.112ZM50.8263 146.824H54.4863V145.816H50.8263V146.824ZM59.1143 149.5C61.6823 149.5 63.4103 147.748 63.4103 145.168C63.4103 142.576 61.6583 140.824 59.0663 140.824H56.2463V149.5H59.1143ZM58.9823 141.904C60.9623 141.904 62.1863 143.152 62.1863 145.168C62.1863 147.16 60.9623 148.408 59.0303 148.408H57.4223V141.904H58.9823ZM67.2464 149.644C68.6984 149.644 69.6824 148.936 69.9704 147.676H68.9144C68.7224 148.348 68.1464 148.708 67.2704 148.708C66.1544 148.708 65.5064 148.024 65.4224 146.788L69.9584 146.776V146.356C69.9584 144.616 68.8664 143.464 67.1984 143.464C65.4944 143.464 64.3304 144.736 64.3304 146.572C64.3304 148.396 65.5184 149.644 67.2464 149.644ZM67.1984 144.412C68.1944 144.412 68.8304 145.06 68.8304 146.032H65.4464C65.5904 145 66.2144 144.412 67.1984 144.412ZM75.1903 149.5H76.3183V143.632H72.5863V142.696C72.5863 142.06 72.7663 141.688 73.4503 141.688H73.9543V140.716C73.7383 140.68 73.4743 140.668 73.2583 140.668C72.2383 140.668 71.4583 141.256 71.4583 142.696V143.632H70.5943V144.58H71.4583V149.5H72.5863V144.58H75.1903V149.5ZM75.7543 142.192C76.1503 142.192 76.4623 141.88 76.4623 141.472C76.4623 141.064 76.1503 140.752 75.7543 140.752C75.3463 140.752 75.0343 141.064 75.0343 141.472C75.0343 141.88 75.3463 142.192 75.7543 142.192ZM79.0495 149.5V146.392C79.0495 145.252 79.6615 144.496 80.7175 144.496C81.5815 144.496 82.1335 144.976 82.1335 146.164V149.5H83.2615V145.912C83.2615 144.412 82.5535 143.464 81.0055 143.464C80.1775 143.464 79.4335 143.86 79.0615 144.532L78.9415 143.632H77.9215V149.5H79.0495ZM86.5398 149.644C87.4878 149.644 88.2918 149.224 88.5918 148.552L88.7118 149.5H89.6718V145.816C89.6718 144.232 88.6878 143.464 87.2358 143.464C85.7238 143.464 84.7158 144.268 84.7158 145.492H85.6998C85.6998 144.784 86.2398 144.364 87.1878 144.364C87.9798 144.364 88.5678 144.712 88.5678 145.696V145.864L86.7198 146.008C85.3398 146.116 84.5358 146.788 84.5358 147.868C84.5358 148.936 85.2798 149.644 86.5398 149.644ZM86.8638 148.768C86.1318 148.768 85.6758 148.456 85.6758 147.832C85.6758 147.256 86.0838 146.872 87.0798 146.776L88.5798 146.656V146.968C88.5798 148.072 87.9318 148.768 86.8638 148.768ZM92.7962 149.5V144.58H93.9482V143.632H92.7962V141.796H91.6682V143.632H90.5162V144.58H91.6682V149.5H92.7962ZM95.5125 142.24C95.9205 142.24 96.2565 141.904 96.2565 141.496C96.2565 141.076 95.9205 140.752 95.5125 140.752C95.1045 140.752 94.7685 141.076 94.7685 141.496C94.7685 141.904 95.1045 142.24 95.5125 142.24ZM94.9605 149.5H96.0885V143.632H94.9605V149.5ZM97.3422 146.56C97.3422 148.372 98.6382 149.644 100.402 149.644C102.154 149.644 103.45 148.372 103.45 146.56C103.45 144.748 102.154 143.476 100.402 143.476C98.6382 143.476 97.3422 144.748 97.3422 146.56ZM98.4822 146.56C98.4822 145.336 99.2622 144.484 100.402 144.484C101.53 144.484 102.322 145.336 102.322 146.56C102.322 147.784 101.53 148.636 100.402 148.636C99.2622 148.636 98.4822 147.784 98.4822 146.56ZM105.827 149.5V146.392C105.827 145.252 106.439 144.496 107.495 144.496C108.359 144.496 108.911 144.976 108.911 146.164V149.5H110.039V145.912C110.039 144.412 109.331 143.464 107.783 143.464C106.955 143.464 106.211 143.86 105.839 144.532L105.719 143.632H104.699V149.5H105.827ZM117.486 149.5H118.71L121.974 140.824H120.75L118.65 146.356C118.506 146.74 118.302 147.316 118.098 148C117.918 147.352 117.75 146.86 117.558 146.368L115.446 140.824H114.186L117.486 149.5ZM123.462 142.24C123.87 142.24 124.206 141.904 124.206 141.496C124.206 141.076 123.87 140.752 123.462 140.752C123.054 140.752 122.718 141.076 122.718 141.496C122.718 141.904 123.054 142.24 123.462 142.24ZM122.91 149.5H124.038V143.632H122.91V149.5ZM128.027 149.644C128.963 149.644 129.755 149.236 130.139 148.432L130.235 149.5H131.243V140.668H130.127V144.58C129.731 143.86 128.975 143.464 128.075 143.464C126.335 143.464 125.291 144.784 125.291 146.584C125.291 148.372 126.323 149.644 128.027 149.644ZM128.255 148.624C127.103 148.624 126.431 147.76 126.431 146.548C126.431 145.348 127.103 144.484 128.255 144.484C129.407 144.484 130.115 145.348 130.115 146.548C130.115 147.772 129.407 148.624 128.255 148.624ZM135.403 149.644C136.855 149.644 137.839 148.936 138.127 147.676H137.071C136.879 148.348 136.303 148.708 135.427 148.708C134.311 148.708 133.663 148.024 133.579 146.788L138.115 146.776V146.356C138.115 144.616 137.023 143.464 135.355 143.464C133.651 143.464 132.487 144.736 132.487 146.572C132.487 148.396 133.675 149.644 135.403 149.644ZM135.355 144.412C136.351 144.412 136.987 145.06 136.987 146.032H133.603C133.747 145 134.371 144.412 135.355 144.412ZM138.991 146.56C138.991 148.372 140.287 149.644 142.051 149.644C143.803 149.644 145.099 148.372 145.099 146.56C145.099 144.748 143.803 143.476 142.051 143.476C140.287 143.476 138.991 144.748 138.991 146.56ZM140.131 146.56C140.131 145.336 140.911 144.484 142.051 144.484C143.179 144.484 143.971 145.336 143.971 146.56C143.971 147.784 143.179 148.636 142.051 148.636C140.911 148.636 140.131 147.784 140.131 146.56ZM150.997 140.824H149.821V149.5H150.997V140.824ZM152.348 147.796C152.348 148.912 153.224 149.644 154.604 149.644C155.996 149.644 156.956 148.936 156.956 147.82C156.956 146.944 156.464 146.488 155.468 146.248L154.436 145.996C153.86 145.852 153.572 145.588 153.572 145.192C153.572 144.652 153.968 144.34 154.676 144.34C155.36 144.34 155.756 144.712 155.78 145.3H156.86C156.836 144.184 155.996 143.464 154.712 143.464C153.416 143.464 152.504 144.148 152.504 145.228C152.504 146.092 152.996 146.608 154.04 146.86L155.072 147.1C155.684 147.256 155.876 147.496 155.876 147.892C155.876 148.432 155.42 148.756 154.628 148.756C153.884 148.756 153.428 148.396 153.428 147.796H152.348ZM164.092 149.5H165.316L168.58 140.824H167.356L165.256 146.356C165.112 146.74 164.908 147.316 164.704 148C164.524 147.352 164.356 146.86 164.164 146.368L162.052 140.824H160.792L164.092 149.5ZM170.067 142.24C170.475 142.24 170.811 141.904 170.811 141.496C170.811 141.076 170.475 140.752 170.067 140.752C169.659 140.752 169.323 141.076 169.323 141.496C169.323 141.904 169.659 142.24 170.067 142.24ZM169.515 149.5H170.643V143.632H169.515V149.5ZM174.633 149.644C175.569 149.644 176.361 149.236 176.745 148.432L176.841 149.5H177.849V140.668H176.733V144.58C176.337 143.86 175.581 143.464 174.681 143.464C172.941 143.464 171.897 144.784 171.897 146.584C171.897 148.372 172.929 149.644 174.633 149.644ZM174.861 148.624C173.709 148.624 173.037 147.76 173.037 146.548C173.037 145.348 173.709 144.484 174.861 144.484C176.013 144.484 176.721 145.348 176.721 146.548C176.721 147.772 176.013 148.624 174.861 148.624ZM182.008 149.644C183.46 149.644 184.444 148.936 184.732 147.676H183.676C183.484 148.348 182.908 148.708 182.032 148.708C180.916 148.708 180.268 148.024 180.184 146.788L184.72 146.776V146.356C184.72 144.616 183.628 143.464 181.96 143.464C180.256 143.464 179.092 144.736 179.092 146.572C179.092 148.396 180.28 149.644 182.008 149.644ZM181.96 144.412C182.956 144.412 183.592 145.06 183.592 146.032H180.208C180.352 145 180.976 144.412 181.96 144.412ZM185.596 146.56C185.596 148.372 186.892 149.644 188.656 149.644C190.408 149.644 191.704 148.372 191.704 146.56C191.704 144.748 190.408 143.476 188.656 143.476C186.892 143.476 185.596 144.748 185.596 146.56ZM186.736 146.56C186.736 145.336 187.516 144.484 188.656 144.484C189.784 144.484 190.576 145.336 190.576 146.56C190.576 147.784 189.784 148.636 188.656 148.636C187.516 148.636 186.736 147.784 186.736 146.56ZM204.25 145.156C204.25 142.516 202.534 140.668 200.074 140.668C197.626 140.668 195.91 142.528 195.91 145.156C195.91 147.796 197.614 149.644 200.062 149.644C202.522 149.644 204.25 147.796 204.25 145.156ZM203.014 145.156C203.014 147.16 201.838 148.516 200.074 148.516C198.31 148.516 197.146 147.172 197.146 145.156C197.146 143.14 198.31 141.808 200.074 141.808C201.838 141.808 203.014 143.14 203.014 145.156ZM204.938 143.632V144.58H205.802V149.5H206.93V144.58H208.322V143.632H206.93V142.696C206.93 142.06 207.122 141.688 207.854 141.688H208.358V140.716C208.13 140.68 207.878 140.668 207.662 140.668C206.594 140.668 205.802 141.256 205.802 142.696V143.632H204.938ZM214.02 149.5V145.648H218.316V149.5H219.492V140.824H218.316V144.556H214.02V140.824H212.844V149.5H214.02ZM221.864 142.24C222.272 142.24 222.608 141.904 222.608 141.496C222.608 141.076 222.272 140.752 221.864 140.752C221.456 140.752 221.12 141.076 221.12 141.496C221.12 141.904 221.456 142.24 221.864 142.24ZM221.312 149.5H222.44V143.632H221.312V149.5ZM223.706 146.416C223.706 148.06 224.762 149.344 226.43 149.344C227.354 149.344 228.122 148.936 228.506 148.252V149.428C228.506 150.544 227.786 151.264 226.682 151.264C225.698 151.264 225.05 150.76 224.906 149.896H223.778C223.994 151.384 225.086 152.284 226.682 152.284C228.482 152.284 229.622 151.108 229.622 149.26V143.632H228.614L228.53 144.628C228.158 143.896 227.426 143.464 226.478 143.464C224.774 143.464 223.706 144.76 223.706 146.416ZM224.834 146.392C224.834 145.312 225.506 144.448 226.634 144.448C227.786 144.448 228.458 145.264 228.458 146.392C228.458 147.544 227.762 148.36 226.622 148.36C225.518 148.36 224.834 147.496 224.834 146.392ZM232.378 149.488V146.296C232.378 145.288 232.966 144.496 234.058 144.496C234.898 144.496 235.462 144.976 235.462 146.164V149.5H236.59V145.912C236.59 144.412 235.87 143.464 234.37 143.464C233.458 143.464 232.75 143.896 232.378 144.532V140.668H231.25V149.488H232.378ZM240.684 149.644C242.136 149.644 243.12 148.936 243.408 147.676H242.352C242.16 148.348 241.584 148.708 240.708 148.708C239.592 148.708 238.944 148.024 238.86 146.788L243.396 146.776V146.356C243.396 144.616 242.304 143.464 240.636 143.464C238.932 143.464 237.768 144.736 237.768 146.572C237.768 148.396 238.956 149.644 240.684 149.644ZM240.636 144.412C241.632 144.412 242.268 145.06 242.268 146.032H238.884C239.028 145 239.652 144.412 240.636 144.412ZM248.016 143.584C247.788 143.536 247.62 143.512 247.416 143.512C246.612 143.512 246.024 143.92 245.784 144.532L245.712 143.644H244.656V149.5H245.784V146.392C245.784 145.264 246.444 144.616 247.512 144.616H248.016V143.584ZM26.7543 177.5V174.068H28.9743L30.5943 177.5H31.9023L30.1383 173.84C31.2183 173.492 31.8183 172.628 31.8183 171.428C31.8183 169.808 30.7143 168.824 28.8543 168.824H25.5783V177.5H26.7543ZM26.7543 169.88H28.8543C29.9343 169.88 30.5823 170.432 30.5823 171.44C30.5823 172.436 29.9583 173.024 28.8663 173.024H26.7543V169.88ZM35.348 177.644C36.8 177.644 37.784 176.936 38.072 175.676H37.016C36.824 176.348 36.248 176.708 35.372 176.708C34.256 176.708 33.608 176.024 33.524 174.788L38.06 174.776V174.356C38.06 172.616 36.968 171.464 35.3 171.464C33.596 171.464 32.432 172.736 32.432 174.572C32.432 176.396 33.62 177.644 35.348 177.644ZM35.3 172.412C36.296 172.412 36.932 173.06 36.932 174.032H33.548C33.692 173 34.316 172.412 35.3 172.412ZM38.8399 175.796C38.8399 176.912 39.7159 177.644 41.0959 177.644C42.4879 177.644 43.4479 176.936 43.4479 175.82C43.4479 174.944 42.9559 174.488 41.9599 174.248L40.9279 173.996C40.3519 173.852 40.0639 173.588 40.0639 173.192C40.0639 172.652 40.4599 172.34 41.1679 172.34C41.8519 172.34 42.2479 172.712 42.2719 173.3H43.3519C43.3279 172.184 42.4879 171.464 41.2039 171.464C39.9079 171.464 38.9959 172.148 38.9959 173.228C38.9959 174.092 39.4879 174.608 40.5319 174.86L41.5639 175.1C42.1759 175.256 42.3679 175.496 42.3679 175.892C42.3679 176.432 41.9119 176.756 41.1199 176.756C40.3759 176.756 39.9199 176.396 39.9199 175.796H38.8399ZM44.3148 174.56C44.3148 176.372 45.6108 177.644 47.3748 177.644C49.1268 177.644 50.4228 176.372 50.4228 174.56C50.4228 172.748 49.1268 171.476 47.3748 171.476C45.6108 171.476 44.3148 172.748 44.3148 174.56ZM45.4548 174.56C45.4548 173.336 46.2348 172.484 47.3748 172.484C48.5028 172.484 49.2948 173.336 49.2948 174.56C49.2948 175.784 48.5028 176.636 47.3748 176.636C46.2348 176.636 45.4548 175.784 45.4548 174.56ZM52.8235 177.5V168.668H51.6955V177.5H52.8235ZM58.54 171.632V174.728C58.54 175.988 57.976 176.648 56.944 176.648C56.08 176.648 55.54 176.168 55.54 174.908V171.632H54.412V175.28C54.412 176.72 55.18 177.644 56.548 177.644C57.412 177.644 58.192 177.224 58.528 176.612L58.648 177.5H59.656V171.632H58.54ZM62.9486 177.5V172.58H64.1006V171.632H62.9486V169.796H61.8206V171.632H60.6686V172.58H61.8206V177.5H62.9486ZM65.6649 170.24C66.0729 170.24 66.4089 169.904 66.4089 169.496C66.4089 169.076 66.0729 168.752 65.6649 168.752C65.2569 168.752 64.9209 169.076 64.9209 169.496C64.9209 169.904 65.2569 170.24 65.6649 170.24ZM65.1129 177.5H66.2409V171.632H65.1129V177.5ZM67.4945 174.56C67.4945 176.372 68.7905 177.644 70.5545 177.644C72.3065 177.644 73.6025 176.372 73.6025 174.56C73.6025 172.748 72.3065 171.476 70.5545 171.476C68.7905 171.476 67.4945 172.748 67.4945 174.56ZM68.6345 174.56C68.6345 173.336 69.4145 172.484 70.5545 172.484C71.6825 172.484 72.4745 173.336 72.4745 174.56C72.4745 175.784 71.6825 176.636 70.5545 176.636C69.4145 176.636 68.6345 175.784 68.6345 174.56ZM75.9792 177.5V174.392C75.9792 173.252 76.5912 172.496 77.6472 172.496C78.5112 172.496 79.0632 172.976 79.0632 174.164V177.5H80.1912V173.912C80.1912 172.412 79.4832 171.464 77.9352 171.464C77.1072 171.464 76.3632 171.86 75.9912 172.532L75.8712 171.632H74.8512V177.5H75.9792ZM85.5868 177.5L86.3548 175.34H90.0028L90.7828 177.5H92.0188L88.8388 168.824H87.5308L84.3628 177.5H85.5868ZM88.0348 170.696C88.0948 170.516 88.1548 170.312 88.1788 170.192C88.2028 170.324 88.2628 170.528 88.3228 170.696L89.6548 174.32H86.7148L88.0348 170.696ZM94.1081 177.5V174.392C94.1081 173.252 94.7201 172.496 95.7761 172.496C96.6401 172.496 97.1921 172.976 97.1921 174.164V177.5H98.3201V173.912C98.3201 172.412 97.6121 171.464 96.0641 171.464C95.2361 171.464 94.4921 171.86 94.1201 172.532L94.0001 171.632H92.9801V177.5H94.1081ZM102.234 177.644C103.17 177.644 103.962 177.236 104.346 176.432L104.442 177.5H105.45V168.668H104.334V172.58C103.938 171.86 103.182 171.464 102.282 171.464C100.542 171.464 99.4984 172.784 99.4984 174.584C99.4984 176.372 100.53 177.644 102.234 177.644ZM102.462 176.624C101.31 176.624 100.638 175.76 100.638 174.548C100.638 173.348 101.31 172.484 102.462 172.484C103.614 172.484 104.322 173.348 104.322 174.548C104.322 175.772 103.614 176.624 102.462 176.624ZM117.391 178.076L118.159 177.38L117.247 176.348C117.955 175.556 118.375 174.452 118.375 173.156C118.375 170.516 116.659 168.668 114.199 168.668C111.751 168.668 110.035 170.528 110.035 173.156C110.035 175.796 111.739 177.644 114.187 177.644C115.039 177.644 115.807 177.416 116.455 177.02L117.391 178.076ZM117.139 173.156C117.139 174.08 116.887 174.872 116.443 175.448L115.291 174.152L114.523 174.848L115.663 176.132C115.243 176.384 114.751 176.516 114.199 176.516C112.435 176.516 111.271 175.172 111.271 173.156C111.271 171.14 112.435 169.808 114.199 169.808C115.963 169.808 117.139 171.14 117.139 173.156ZM123.743 171.632V174.728C123.743 175.988 123.179 176.648 122.147 176.648C121.283 176.648 120.743 176.168 120.743 174.908V171.632H119.615V175.28C119.615 176.72 120.383 177.644 121.751 177.644C122.615 177.644 123.395 177.224 123.731 176.612L123.851 177.5H124.859V171.632H123.743ZM128.212 177.644C129.16 177.644 129.964 177.224 130.264 176.552L130.384 177.5H131.344V173.816C131.344 172.232 130.36 171.464 128.908 171.464C127.396 171.464 126.388 172.268 126.388 173.492H127.372C127.372 172.784 127.912 172.364 128.86 172.364C129.652 172.364 130.24 172.712 130.24 173.696V173.864L128.392 174.008C127.012 174.116 126.208 174.788 126.208 175.868C126.208 176.936 126.952 177.644 128.212 177.644ZM128.536 176.768C127.804 176.768 127.348 176.456 127.348 175.832C127.348 175.256 127.756 174.872 128.752 174.776L130.252 174.656V174.968C130.252 176.072 129.604 176.768 128.536 176.768ZM134.058 177.5V168.668H132.93V177.5H134.058ZM136.27 170.24C136.678 170.24 137.014 169.904 137.014 169.496C137.014 169.076 136.678 168.752 136.27 168.752C135.862 168.752 135.526 169.076 135.526 169.496C135.526 169.904 135.862 170.24 136.27 170.24ZM135.718 177.5H136.846V171.632H135.718V177.5ZM140.14 177.5V172.58H141.292V171.632H140.14V169.796H139.012V171.632H137.86V172.58H139.012V177.5H140.14ZM141.74 180.128C142.04 180.2 142.352 180.248 142.724 180.248C143.624 180.248 144.212 179.828 144.608 178.82L147.38 171.632H146.216L144.476 176.36L142.772 171.632H141.584L143.948 177.812L143.744 178.376C143.468 179.12 143.036 179.204 142.496 179.204H141.74V180.128ZM150.914 169.904H153.53V177.5H154.706V169.904H157.31V168.824H150.914V169.904ZM159.428 177.488V174.296C159.428 173.288 160.016 172.496 161.108 172.496C161.948 172.496 162.512 172.976 162.512 174.164V177.5H163.64V173.912C163.64 172.412 162.92 171.464 161.42 171.464C160.508 171.464 159.8 171.896 159.428 172.532V168.668H158.3V177.488H159.428ZM166.919 177.644C167.867 177.644 168.671 177.224 168.971 176.552L169.091 177.5H170.051V173.816C170.051 172.232 169.067 171.464 167.615 171.464C166.103 171.464 165.095 172.268 165.095 173.492H166.079C166.079 172.784 166.619 172.364 167.567 172.364C168.359 172.364 168.947 172.712 168.947 173.696V173.864L167.099 174.008C165.719 174.116 164.915 174.788 164.915 175.868C164.915 176.936 165.659 177.644 166.919 177.644ZM167.243 176.768C166.511 176.768 166.055 176.456 166.055 175.832C166.055 175.256 166.463 174.872 167.459 174.776L168.959 174.656V174.968C168.959 176.072 168.311 176.768 167.243 176.768ZM172.741 177.5V174.392C172.741 173.252 173.353 172.496 174.409 172.496C175.273 172.496 175.825 172.976 175.825 174.164V177.5H176.953V173.912C176.953 172.412 176.245 171.464 174.697 171.464C173.869 171.464 173.125 171.86 172.753 172.532L172.633 171.632H171.613V177.5H172.741ZM181.484 171.164C181.484 172.412 182.216 173.228 183.632 173.552L185.06 173.876C185.888 174.068 186.26 174.5 186.26 175.184C186.26 176.048 185.528 176.588 184.376 176.588C183.284 176.588 182.588 176.06 182.564 175.232H181.364C181.436 176.72 182.612 177.644 184.376 177.644C186.224 177.644 187.436 176.648 187.436 175.088C187.436 173.864 186.716 173.096 185.3 172.772L183.872 172.436C183.056 172.244 182.66 171.824 182.66 171.128C182.66 170.276 183.368 169.724 184.46 169.724C185.432 169.724 186.044 170.228 186.104 171.092H187.292C187.196 169.592 186.128 168.668 184.472 168.668C182.684 168.668 181.484 169.676 181.484 171.164ZM190.378 177.5V172.58H191.53V171.632H190.378V169.796H189.25V171.632H188.098V172.58H189.25V177.5H190.378ZM194.188 177.644C195.136 177.644 195.94 177.224 196.24 176.552L196.36 177.5H197.32V173.816C197.32 172.232 196.336 171.464 194.884 171.464C193.372 171.464 192.364 172.268 192.364 173.492H193.348C193.348 172.784 193.888 172.364 194.836 172.364C195.628 172.364 196.216 172.712 196.216 173.696V173.864L194.368 174.008C192.988 174.116 192.184 174.788 192.184 175.868C192.184 176.936 192.928 177.644 194.188 177.644ZM194.512 176.768C193.78 176.768 193.324 176.456 193.324 175.832C193.324 175.256 193.732 174.872 194.728 174.776L196.228 174.656V174.968C196.228 176.072 195.58 176.768 194.512 176.768ZM200.01 177.5V174.392C200.01 173.252 200.622 172.496 201.678 172.496C202.542 172.496 203.094 172.976 203.094 174.164V177.5H204.222V173.912C204.222 172.412 203.514 171.464 201.966 171.464C201.138 171.464 200.394 171.86 200.022 172.532L199.902 171.632H198.882V177.5H200.01ZM208.137 177.644C209.073 177.644 209.865 177.236 210.249 176.432L210.345 177.5H211.353V168.668H210.237V172.58C209.841 171.86 209.085 171.464 208.185 171.464C206.445 171.464 205.401 172.784 205.401 174.584C205.401 176.372 206.433 177.644 208.137 177.644ZM208.365 176.624C207.213 176.624 206.541 175.76 206.541 174.548C206.541 173.348 207.213 172.484 208.365 172.484C209.517 172.484 210.225 173.348 210.225 174.548C210.225 175.772 209.517 176.624 208.365 176.624ZM214.696 177.644C215.644 177.644 216.448 177.224 216.748 176.552L216.868 177.5H217.828V173.816C217.828 172.232 216.844 171.464 215.392 171.464C213.88 171.464 212.872 172.268 212.872 173.492H213.856C213.856 172.784 214.396 172.364 215.344 172.364C216.136 172.364 216.724 172.712 216.724 173.696V173.864L214.876 174.008C213.496 174.116 212.692 174.788 212.692 175.868C212.692 176.936 213.436 177.644 214.696 177.644ZM215.02 176.768C214.288 176.768 213.832 176.456 213.832 175.832C213.832 175.256 214.24 174.872 215.236 174.776L216.736 174.656V174.968C216.736 176.072 216.088 176.768 215.02 176.768ZM222.75 171.584C222.522 171.536 222.354 171.512 222.15 171.512C221.346 171.512 220.758 171.92 220.518 172.532L220.446 171.644H219.39V177.5H220.518V174.392C220.518 173.264 221.178 172.616 222.246 172.616H222.75V171.584ZM225.949 177.644C226.885 177.644 227.677 177.236 228.061 176.432L228.157 177.5H229.165V168.668H228.049V172.58C227.653 171.86 226.897 171.464 225.997 171.464C224.257 171.464 223.213 172.784 223.213 174.584C223.213 176.372 224.245 177.644 225.949 177.644ZM226.177 176.624C225.025 176.624 224.353 175.76 224.353 174.548C224.353 173.348 225.025 172.484 226.177 172.484C227.329 172.484 228.037 173.348 228.037 174.548C228.037 175.772 227.329 176.624 226.177 176.624ZM28.4463 205.5C31.0143 205.5 32.7423 203.748 32.7423 201.168C32.7423 198.576 30.9903 196.824 28.3983 196.824H25.5783V205.5H28.4463ZM28.3143 197.904C30.2943 197.904 31.5183 199.152 31.5183 201.168C31.5183 203.16 30.2943 204.408 28.3623 204.408H26.7543V197.904H28.3143ZM36.5785 205.644C38.0305 205.644 39.0145 204.936 39.3025 203.676H38.2465C38.0545 204.348 37.4785 204.708 36.6025 204.708C35.4865 204.708 34.8385 204.024 34.7545 202.788L39.2905 202.776V202.356C39.2905 200.616 38.1985 199.464 36.5305 199.464C34.8265 199.464 33.6625 200.736 33.6625 202.572C33.6625 204.396 34.8505 205.644 36.5785 205.644ZM36.5305 200.412C37.5265 200.412 38.1625 201.06 38.1625 202.032H34.7785C34.9225 201 35.5465 200.412 36.5305 200.412ZM44.5224 205.5H45.6504V199.632H41.9184V198.696C41.9184 198.06 42.0984 197.688 42.7824 197.688H43.2864V196.716C43.0704 196.68 42.8064 196.668 42.5904 196.668C41.5704 196.668 40.7904 197.256 40.7904 198.696V199.632H39.9264V200.58H40.7904V205.5H41.9184V200.58H44.5224V205.5ZM45.0864 198.192C45.4824 198.192 45.7944 197.88 45.7944 197.472C45.7944 197.064 45.4824 196.752 45.0864 196.752C44.6784 196.752 44.3664 197.064 44.3664 197.472C44.3664 197.88 44.6784 198.192 45.0864 198.192ZM48.3815 205.5V202.392C48.3815 201.252 48.9935 200.496 50.0495 200.496C50.9135 200.496 51.4655 200.976 51.4655 202.164V205.5H52.5935V201.912C52.5935 200.412 51.8855 199.464 50.3375 199.464C49.5095 199.464 48.7655 199.86 48.3935 200.532L48.2735 199.632H47.2535V205.5H48.3815ZM54.7078 198.24C55.1158 198.24 55.4518 197.904 55.4518 197.496C55.4518 197.076 55.1158 196.752 54.7078 196.752C54.2998 196.752 53.9638 197.076 53.9638 197.496C53.9638 197.904 54.2998 198.24 54.7078 198.24ZM54.1558 205.5H55.2838V199.632H54.1558V205.5ZM58.5775 205.5V200.58H59.7295V199.632H58.5775V197.796H57.4495V199.632H56.2975V200.58H57.4495V205.5H58.5775ZM61.2938 198.24C61.7018 198.24 62.0378 197.904 62.0378 197.496C62.0378 197.076 61.7018 196.752 61.2938 196.752C60.8858 196.752 60.5498 197.076 60.5498 197.496C60.5498 197.904 60.8858 198.24 61.2938 198.24ZM60.7418 205.5H61.8698V199.632H60.7418V205.5ZM63.1234 202.56C63.1234 204.372 64.4194 205.644 66.1834 205.644C67.9354 205.644 69.2314 204.372 69.2314 202.56C69.2314 200.748 67.9354 199.476 66.1834 199.476C64.4194 199.476 63.1234 200.748 63.1234 202.56ZM64.2634 202.56C64.2634 201.336 65.0434 200.484 66.1834 200.484C67.3114 200.484 68.1034 201.336 68.1034 202.56C68.1034 203.784 67.3114 204.636 66.1834 204.636C65.0434 204.636 64.2634 203.784 64.2634 202.56ZM71.6081 205.5V202.392C71.6081 201.252 72.2201 200.496 73.2761 200.496C74.1401 200.496 74.6921 200.976 74.6921 202.164V205.5H75.8201V201.912C75.8201 200.412 75.1121 199.464 73.5641 199.464C72.7361 199.464 71.9921 199.86 71.6201 200.532L71.5001 199.632H70.4801V205.5H71.6081ZM78.2224 205.644C78.6784 205.644 79.0744 205.26 79.0744 204.804C79.0744 204.336 78.6784 203.952 78.2224 203.952C77.7544 203.952 77.3584 204.336 77.3584 204.804C77.3584 205.26 77.7544 205.644 78.2224 205.644ZM85.3481 205.5V201.648H89.6441V205.5H90.8201V196.824H89.6441V200.556H85.3481V196.824H84.1721V205.5H85.3481ZM93.1922 198.24C93.6002 198.24 93.9362 197.904 93.9362 197.496C93.9362 197.076 93.6002 196.752 93.1922 196.752C92.7842 196.752 92.4482 197.076 92.4482 197.496C92.4482 197.904 92.7842 198.24 93.1922 198.24ZM92.6402 205.5H93.7682V199.632H92.6402V205.5ZM95.0338 202.416C95.0338 204.06 96.0898 205.344 97.7578 205.344C98.6818 205.344 99.4498 204.936 99.8338 204.252V205.428C99.8338 206.544 99.1138 207.264 98.0098 207.264C97.0258 207.264 96.3778 206.76 96.2338 205.896H95.1058C95.3218 207.384 96.4138 208.284 98.0098 208.284C99.8098 208.284 100.95 207.108 100.95 205.26V199.632H99.9418L99.8578 200.628C99.4858 199.896 98.7538 199.464 97.8058 199.464C96.1018 199.464 95.0338 200.76 95.0338 202.416ZM96.1618 202.392C96.1618 201.312 96.8338 200.448 97.9618 200.448C99.1138 200.448 99.7858 201.264 99.7858 202.392C99.7858 203.544 99.0898 204.36 97.9498 204.36C96.8458 204.36 96.1618 203.496 96.1618 202.392ZM103.706 205.488V202.296C103.706 201.288 104.294 200.496 105.386 200.496C106.226 200.496 106.79 200.976 106.79 202.164V205.5H107.918V201.912C107.918 200.412 107.198 199.464 105.698 199.464C104.786 199.464 104.078 199.896 103.706 200.532V196.668H102.578V205.488H103.706ZM109.42 202.824H113.08V201.816H109.42V202.824ZM117.708 205.5C120.276 205.5 122.004 203.748 122.004 201.168C122.004 198.576 120.252 196.824 117.66 196.824H114.84V205.5H117.708ZM117.576 197.904C119.556 197.904 120.78 199.152 120.78 201.168C120.78 203.16 119.556 204.408 117.624 204.408H116.016V197.904H117.576ZM125.84 205.644C127.292 205.644 128.276 204.936 128.564 203.676H127.508C127.316 204.348 126.74 204.708 125.864 204.708C124.748 204.708 124.1 204.024 124.016 202.788L128.552 202.776V202.356C128.552 200.616 127.46 199.464 125.792 199.464C124.088 199.464 122.924 200.736 122.924 202.572C122.924 204.396 124.112 205.644 125.84 205.644ZM125.792 200.412C126.788 200.412 127.424 201.06 127.424 202.032H124.04C124.184 201 124.808 200.412 125.792 200.412ZM133.784 205.5H134.912V199.632H131.18V198.696C131.18 198.06 131.36 197.688 132.044 197.688H132.548V196.716C132.332 196.68 132.068 196.668 131.852 196.668C130.832 196.668 130.052 197.256 130.052 198.696V199.632H129.188V200.58H130.052V205.5H131.18V200.58H133.784V205.5ZM134.348 198.192C134.744 198.192 135.056 197.88 135.056 197.472C135.056 197.064 134.744 196.752 134.348 196.752C133.94 196.752 133.628 197.064 133.628 197.472C133.628 197.88 133.94 198.192 134.348 198.192ZM137.643 205.5V202.392C137.643 201.252 138.255 200.496 139.311 200.496C140.175 200.496 140.727 200.976 140.727 202.164V205.5H141.855V201.912C141.855 200.412 141.147 199.464 139.599 199.464C138.771 199.464 138.027 199.86 137.655 200.532L137.535 199.632H136.515V205.5H137.643ZM145.134 205.644C146.082 205.644 146.886 205.224 147.186 204.552L147.306 205.5H148.266V201.816C148.266 200.232 147.282 199.464 145.83 199.464C144.318 199.464 143.31 200.268 143.31 201.492H144.294C144.294 200.784 144.834 200.364 145.782 200.364C146.574 200.364 147.162 200.712 147.162 201.696V201.864L145.314 202.008C143.934 202.116 143.13 202.788 143.13 203.868C143.13 204.936 143.874 205.644 145.134 205.644ZM145.458 204.768C144.726 204.768 144.27 204.456 144.27 203.832C144.27 203.256 144.678 202.872 145.674 202.776L147.174 202.656V202.968C147.174 204.072 146.526 204.768 145.458 204.768ZM151.39 205.5V200.58H152.542V199.632H151.39V197.796H150.262V199.632H149.11V200.58H150.262V205.5H151.39ZM154.106 198.24C154.514 198.24 154.85 197.904 154.85 197.496C154.85 197.076 154.514 196.752 154.106 196.752C153.698 196.752 153.362 197.076 153.362 197.496C153.362 197.904 153.698 198.24 154.106 198.24ZM153.554 205.5H154.682V199.632H153.554V205.5ZM155.936 202.56C155.936 204.372 157.232 205.644 158.996 205.644C160.748 205.644 162.044 204.372 162.044 202.56C162.044 200.748 160.748 199.476 158.996 199.476C157.232 199.476 155.936 200.748 155.936 202.56ZM157.076 202.56C157.076 201.336 157.856 200.484 158.996 200.484C160.124 200.484 160.916 201.336 160.916 202.56C160.916 203.784 160.124 204.636 158.996 204.636C157.856 204.636 157.076 203.784 157.076 202.56ZM164.421 205.5V202.392C164.421 201.252 165.033 200.496 166.089 200.496C166.953 200.496 167.505 200.976 167.505 202.164V205.5H168.633V201.912C168.633 200.412 167.925 199.464 166.377 199.464C165.549 199.464 164.805 199.86 164.433 200.532L164.313 199.632H163.293V205.5H164.421ZM176.08 205.5H177.304L180.568 196.824H179.344L177.244 202.356C177.1 202.74 176.896 203.316 176.692 204C176.512 203.352 176.344 202.86 176.152 202.368L174.04 196.824H172.78L176.08 205.5ZM182.056 198.24C182.464 198.24 182.8 197.904 182.8 197.496C182.8 197.076 182.464 196.752 182.056 196.752C181.648 196.752 181.312 197.076 181.312 197.496C181.312 197.904 181.648 198.24 182.056 198.24ZM181.504 205.5H182.632V199.632H181.504V205.5ZM186.621 205.644C187.557 205.644 188.349 205.236 188.733 204.432L188.829 205.5H189.837V196.668H188.721V200.58C188.325 199.86 187.569 199.464 186.669 199.464C184.929 199.464 183.885 200.784 183.885 202.584C183.885 204.372 184.917 205.644 186.621 205.644ZM186.849 204.624C185.697 204.624 185.025 203.76 185.025 202.548C185.025 201.348 185.697 200.484 186.849 200.484C188.001 200.484 188.709 201.348 188.709 202.548C188.709 203.772 188.001 204.624 186.849 204.624ZM193.996 205.644C195.448 205.644 196.432 204.936 196.72 203.676H195.664C195.472 204.348 194.896 204.708 194.02 204.708C192.904 204.708 192.256 204.024 192.172 202.788L196.708 202.776V202.356C196.708 200.616 195.616 199.464 193.948 199.464C192.244 199.464 191.08 200.736 191.08 202.572C191.08 204.396 192.268 205.644 193.996 205.644ZM193.948 200.412C194.944 200.412 195.58 201.06 195.58 202.032H192.196C192.34 201 192.964 200.412 193.948 200.412ZM197.584 202.56C197.584 204.372 198.88 205.644 200.644 205.644C202.396 205.644 203.692 204.372 203.692 202.56C203.692 200.748 202.396 199.476 200.644 199.476C198.88 199.476 197.584 200.748 197.584 202.56ZM198.724 202.56C198.724 201.336 199.504 200.484 200.644 200.484C201.772 200.484 202.564 201.336 202.564 202.56C202.564 203.784 201.772 204.636 200.644 204.636C199.504 204.636 198.724 203.784 198.724 202.56ZM209.59 196.824H208.414V205.5H209.59V196.824ZM210.941 203.796C210.941 204.912 211.817 205.644 213.197 205.644C214.589 205.644 215.549 204.936 215.549 203.82C215.549 202.944 215.057 202.488 214.061 202.248L213.029 201.996C212.453 201.852 212.165 201.588 212.165 201.192C212.165 200.652 212.561 200.34 213.269 200.34C213.953 200.34 214.349 200.712 214.373 201.3H215.453C215.429 200.184 214.589 199.464 213.305 199.464C212.009 199.464 211.097 200.148 211.097 201.228C211.097 202.092 211.589 202.608 212.633 202.86L213.665 203.1C214.277 203.256 214.469 203.496 214.469 203.892C214.469 204.432 214.013 204.756 213.221 204.756C212.477 204.756 212.021 204.396 212.021 203.796H210.941ZM222.686 205.5H223.91L227.174 196.824H225.95L223.85 202.356C223.706 202.74 223.502 203.316 223.298 204C223.118 203.352 222.95 202.86 222.758 202.368L220.646 196.824H219.386L222.686 205.5ZM228.661 198.24C229.069 198.24 229.405 197.904 229.405 197.496C229.405 197.076 229.069 196.752 228.661 196.752C228.253 196.752 227.917 197.076 227.917 197.496C227.917 197.904 228.253 198.24 228.661 198.24ZM228.109 205.5H229.237V199.632H228.109V205.5ZM233.227 205.644C234.163 205.644 234.955 205.236 235.339 204.432L235.435 205.5H236.443V196.668H235.327V200.58C234.931 199.86 234.175 199.464 233.275 199.464C231.535 199.464 230.491 200.784 230.491 202.584C230.491 204.372 231.523 205.644 233.227 205.644ZM233.455 204.624C232.303 204.624 231.631 203.76 231.631 202.548C231.631 201.348 232.303 200.484 233.455 200.484C234.607 200.484 235.315 201.348 235.315 202.548C235.315 203.772 234.607 204.624 233.455 204.624ZM240.602 205.644C242.054 205.644 243.038 204.936 243.326 203.676H242.27C242.078 204.348 241.502 204.708 240.626 204.708C239.51 204.708 238.862 204.024 238.778 202.788L243.314 202.776V202.356C243.314 200.616 242.222 199.464 240.554 199.464C238.85 199.464 237.686 200.736 237.686 202.572C237.686 204.396 238.874 205.644 240.602 205.644ZM240.554 200.412C241.55 200.412 242.186 201.06 242.186 202.032H238.802C238.946 201 239.57 200.412 240.554 200.412ZM244.19 202.56C244.19 204.372 245.486 205.644 247.25 205.644C249.002 205.644 250.298 204.372 250.298 202.56C250.298 200.748 249.002 199.476 247.25 199.476C245.486 199.476 244.19 200.748 244.19 202.56ZM245.33 202.56C245.33 201.336 246.11 200.484 247.25 200.484C248.378 200.484 249.17 201.336 249.17 202.56C249.17 203.784 248.378 204.636 247.25 204.636C246.11 204.636 245.33 203.784 245.33 202.56ZM262.844 201.156C262.844 198.516 261.128 196.668 258.668 196.668C256.22 196.668 254.504 198.528 254.504 201.156C254.504 203.796 256.208 205.644 258.656 205.644C261.116 205.644 262.844 203.796 262.844 201.156ZM261.608 201.156C261.608 203.16 260.432 204.516 258.668 204.516C256.904 204.516 255.74 203.172 255.74 201.156C255.74 199.14 256.904 197.808 258.668 197.808C260.432 197.808 261.608 199.14 261.608 201.156ZM263.532 199.632V200.58H264.396V205.5H265.524V200.58H266.916V199.632H265.524V198.696C265.524 198.06 265.716 197.688 266.448 197.688H266.952V196.716C266.724 196.68 266.472 196.668 266.256 196.668C265.188 196.668 264.396 197.256 264.396 198.696V199.632H263.532ZM26.7543 233.5V229.648H31.0503V233.5H32.2263V224.824H31.0503V228.556H26.7543V224.824H25.5783V233.5H26.7543ZM34.5985 226.24C35.0065 226.24 35.3425 225.904 35.3425 225.496C35.3425 225.076 35.0065 224.752 34.5985 224.752C34.1905 224.752 33.8545 225.076 33.8545 225.496C33.8545 225.904 34.1905 226.24 34.5985 226.24ZM34.0465 233.5H35.1745V227.632H34.0465V233.5ZM36.4401 230.416C36.4401 232.06 37.4961 233.344 39.1641 233.344C40.0881 233.344 40.8561 232.936 41.2401 232.252V233.428C41.2401 234.544 40.5201 235.264 39.4161 235.264C38.4321 235.264 37.7841 234.76 37.6401 233.896H36.5121C36.7281 235.384 37.8201 236.284 39.4161 236.284C41.2161 236.284 42.3561 235.108 42.3561 233.26V227.632H41.3481L41.2641 228.628C40.8921 227.896 40.1601 227.464 39.2121 227.464C37.5081 227.464 36.4401 228.76 36.4401 230.416ZM37.5681 230.392C37.5681 229.312 38.2401 228.448 39.3681 228.448C40.5201 228.448 41.1921 229.264 41.1921 230.392C41.1921 231.544 40.4961 232.36 39.3561 232.36C38.2521 232.36 37.5681 231.496 37.5681 230.392ZM45.112 233.488V230.296C45.112 229.288 45.7 228.496 46.792 228.496C47.632 228.496 48.196 228.976 48.196 230.164V233.5H49.324V229.912C49.324 228.412 48.604 227.464 47.104 227.464C46.192 227.464 45.484 227.896 45.112 228.532V224.668H43.984V233.488H45.112ZM53.4183 233.644C54.8703 233.644 55.8543 232.936 56.1423 231.676H55.0863C54.8943 232.348 54.3183 232.708 53.4423 232.708C52.3263 232.708 51.6783 232.024 51.5943 230.788L56.1303 230.776V230.356C56.1303 228.616 55.0383 227.464 53.3703 227.464C51.6663 227.464 50.5023 228.736 50.5023 230.572C50.5023 232.396 51.6903 233.644 53.4183 233.644ZM53.3703 228.412C54.3663 228.412 55.0023 229.06 55.0023 230.032H51.6183C51.7623 229 52.3863 228.412 53.3703 228.412ZM60.7502 227.584C60.5222 227.536 60.3542 227.512 60.1502 227.512C59.3462 227.512 58.7582 227.92 58.5182 228.532L58.4462 227.644H57.3902V233.5H58.5182V230.392C58.5182 229.264 59.1782 228.616 60.2462 228.616H60.7502V227.584ZM66.4574 233.5V230.068H68.6774L70.2974 233.5H71.6054L69.8414 229.84C70.9214 229.492 71.5214 228.628 71.5214 227.428C71.5214 225.808 70.4174 224.824 68.5574 224.824H65.2814V233.5H66.4574ZM66.4574 225.88H68.5574C69.6374 225.88 70.2854 226.432 70.2854 227.44C70.2854 228.436 69.6614 229.024 68.5694 229.024H66.4574V225.88ZM75.0511 233.644C76.5031 233.644 77.4871 232.936 77.7751 231.676H76.7191C76.5271 232.348 75.9511 232.708 75.0751 232.708C73.9591 232.708 73.3111 232.024 73.2271 230.788L77.7631 230.776V230.356C77.7631 228.616 76.6711 227.464 75.0031 227.464C73.2991 227.464 72.1351 228.736 72.1351 230.572C72.1351 232.396 73.3231 233.644 75.0511 233.644ZM75.0031 228.412C75.9991 228.412 76.6351 229.06 76.6351 230.032H73.2511C73.3951 229 74.0191 228.412 75.0031 228.412ZM78.543 231.796C78.543 232.912 79.419 233.644 80.799 233.644C82.191 233.644 83.151 232.936 83.151 231.82C83.151 230.944 82.659 230.488 81.663 230.248L80.631 229.996C80.055 229.852 79.767 229.588 79.767 229.192C79.767 228.652 80.163 228.34 80.871 228.34C81.555 228.34 81.951 228.712 81.975 229.3H83.055C83.031 228.184 82.191 227.464 80.907 227.464C79.611 227.464 78.699 228.148 78.699 229.228C78.699 230.092 79.191 230.608 80.235 230.86L81.267 231.1C81.879 231.256 82.071 231.496 82.071 231.892C82.071 232.432 81.615 232.756 80.823 232.756C80.079 232.756 79.623 232.396 79.623 231.796H78.543ZM84.0179 230.56C84.0179 232.372 85.3139 233.644 87.0779 233.644C88.8299 233.644 90.1259 232.372 90.1259 230.56C90.1259 228.748 88.8299 227.476 87.0779 227.476C85.3139 227.476 84.0179 228.748 84.0179 230.56ZM85.1579 230.56C85.1579 229.336 85.9379 228.484 87.0779 228.484C88.2059 228.484 88.9979 229.336 88.9979 230.56C88.9979 231.784 88.2059 232.636 87.0779 232.636C85.9379 232.636 85.1579 231.784 85.1579 230.56ZM92.5266 233.5V224.668H91.3986V233.5H92.5266ZM98.2431 227.632V230.728C98.2431 231.988 97.6791 232.648 96.6471 232.648C95.7831 232.648 95.2431 232.168 95.2431 230.908V227.632H94.1151V231.28C94.1151 232.72 94.8831 233.644 96.2511 233.644C97.1151 233.644 97.8951 233.224 98.2311 232.612L98.3511 233.5H99.3591V227.632H98.2431ZM102.652 233.5V228.58H103.804V227.632H102.652V225.796H101.524V227.632H100.372V228.58H101.524V233.5H102.652ZM105.368 226.24C105.776 226.24 106.112 225.904 106.112 225.496C106.112 225.076 105.776 224.752 105.368 224.752C104.96 224.752 104.624 225.076 104.624 225.496C104.624 225.904 104.96 226.24 105.368 226.24ZM104.816 233.5H105.944V227.632H104.816V233.5ZM107.198 230.56C107.198 232.372 108.494 233.644 110.258 233.644C112.01 233.644 113.306 232.372 113.306 230.56C113.306 228.748 112.01 227.476 110.258 227.476C108.494 227.476 107.198 228.748 107.198 230.56ZM108.338 230.56C108.338 229.336 109.118 228.484 110.258 228.484C111.386 228.484 112.178 229.336 112.178 230.56C112.178 231.784 111.386 232.636 110.258 232.636C109.118 232.636 108.338 231.784 108.338 230.56ZM115.682 233.5V230.392C115.682 229.252 116.294 228.496 117.35 228.496C118.214 228.496 118.766 228.976 118.766 230.164V233.5H119.894V229.912C119.894 228.412 119.186 227.464 117.638 227.464C116.81 227.464 116.066 227.86 115.694 228.532L115.574 227.632H114.554V233.5H115.682ZM125.29 233.5L126.058 231.34H129.706L130.486 233.5H131.722L128.542 224.824H127.234L124.066 233.5H125.29ZM127.738 226.696C127.798 226.516 127.858 226.312 127.882 226.192C127.906 226.324 127.966 226.528 128.026 226.696L129.358 230.32H126.418L127.738 226.696ZM133.811 233.5V230.392C133.811 229.252 134.423 228.496 135.479 228.496C136.343 228.496 136.895 228.976 136.895 230.164V233.5H138.023V229.912C138.023 228.412 137.315 227.464 135.767 227.464C134.939 227.464 134.195 227.86 133.823 228.532L133.703 227.632H132.683V233.5H133.811ZM141.938 233.644C142.874 233.644 143.666 233.236 144.05 232.432L144.146 233.5H145.154V224.668H144.038V228.58C143.642 227.86 142.886 227.464 141.986 227.464C140.246 227.464 139.202 228.784 139.202 230.584C139.202 232.372 140.234 233.644 141.938 233.644ZM142.166 232.624C141.014 232.624 140.342 231.76 140.342 230.548C140.342 229.348 141.014 228.484 142.166 228.484C143.318 228.484 144.026 229.348 144.026 230.548C144.026 231.772 143.318 232.624 142.166 232.624ZM157.094 234.076L157.862 233.38L156.95 232.348C157.658 231.556 158.078 230.452 158.078 229.156C158.078 226.516 156.362 224.668 153.902 224.668C151.454 224.668 149.738 226.528 149.738 229.156C149.738 231.796 151.442 233.644 153.89 233.644C154.742 233.644 155.51 233.416 156.158 233.02L157.094 234.076ZM156.842 229.156C156.842 230.08 156.59 230.872 156.146 231.448L154.994 230.152L154.226 230.848L155.366 232.132C154.946 232.384 154.454 232.516 153.902 232.516C152.138 232.516 150.974 231.172 150.974 229.156C150.974 227.14 152.138 225.808 153.902 225.808C155.666 225.808 156.842 227.14 156.842 229.156ZM163.446 227.632V230.728C163.446 231.988 162.882 232.648 161.85 232.648C160.986 232.648 160.446 232.168 160.446 230.908V227.632H159.318V231.28C159.318 232.72 160.086 233.644 161.454 233.644C162.318 233.644 163.098 233.224 163.434 232.612L163.554 233.5H164.562V227.632H163.446ZM167.915 233.644C168.863 233.644 169.667 233.224 169.967 232.552L170.087 233.5H171.047V229.816C171.047 228.232 170.063 227.464 168.611 227.464C167.099 227.464 166.091 228.268 166.091 229.492H167.075C167.075 228.784 167.615 228.364 168.563 228.364C169.355 228.364 169.943 228.712 169.943 229.696V229.864L168.095 230.008C166.715 230.116 165.911 230.788 165.911 231.868C165.911 232.936 166.655 233.644 167.915 233.644ZM168.239 232.768C167.507 232.768 167.051 232.456 167.051 231.832C167.051 231.256 167.459 230.872 168.455 230.776L169.955 230.656V230.968C169.955 232.072 169.307 232.768 168.239 232.768ZM173.761 233.5V224.668H172.633V233.5H173.761ZM175.973 226.24C176.381 226.24 176.717 225.904 176.717 225.496C176.717 225.076 176.381 224.752 175.973 224.752C175.565 224.752 175.229 225.076 175.229 225.496C175.229 225.904 175.565 226.24 175.973 226.24ZM175.421 233.5H176.549V227.632H175.421V233.5ZM179.843 233.5V228.58H180.995V227.632H179.843V225.796H178.715V227.632H177.563V228.58H178.715V233.5H179.843ZM181.443 236.128C181.743 236.2 182.055 236.248 182.427 236.248C183.327 236.248 183.915 235.828 184.311 234.82L187.083 227.632H185.919L184.179 232.36L182.475 227.632H181.287L183.651 233.812L183.447 234.376C183.171 235.12 182.739 235.204 182.199 235.204H181.443V236.128ZM190.617 225.904H193.233V233.5H194.409V225.904H197.013V224.824H190.617V225.904ZM199.132 233.488V230.296C199.132 229.288 199.72 228.496 200.812 228.496C201.652 228.496 202.216 228.976 202.216 230.164V233.5H203.344V229.912C203.344 228.412 202.624 227.464 201.124 227.464C200.212 227.464 199.504 227.896 199.132 228.532V224.668H198.004V233.488H199.132ZM206.622 233.644C207.57 233.644 208.374 233.224 208.674 232.552L208.794 233.5H209.754V229.816C209.754 228.232 208.77 227.464 207.318 227.464C205.806 227.464 204.798 228.268 204.798 229.492H205.782C205.782 228.784 206.322 228.364 207.27 228.364C208.062 228.364 208.65 228.712 208.65 229.696V229.864L206.802 230.008C205.422 230.116 204.618 230.788 204.618 231.868C204.618 232.936 205.362 233.644 206.622 233.644ZM206.946 232.768C206.214 232.768 205.758 232.456 205.758 231.832C205.758 231.256 206.166 230.872 207.162 230.776L208.662 230.656V230.968C208.662 232.072 208.014 232.768 206.946 232.768ZM212.444 233.5V230.392C212.444 229.252 213.056 228.496 214.112 228.496C214.976 228.496 215.528 228.976 215.528 230.164V233.5H216.656V229.912C216.656 228.412 215.948 227.464 214.4 227.464C213.572 227.464 212.828 227.86 212.456 228.532L212.336 227.632H211.316V233.5H212.444ZM221.188 227.164C221.188 228.412 221.92 229.228 223.336 229.552L224.764 229.876C225.592 230.068 225.964 230.5 225.964 231.184C225.964 232.048 225.232 232.588 224.08 232.588C222.988 232.588 222.292 232.06 222.268 231.232H221.068C221.14 232.72 222.316 233.644 224.08 233.644C225.928 233.644 227.14 232.648 227.14 231.088C227.14 229.864 226.42 229.096 225.004 228.772L223.576 228.436C222.76 228.244 222.364 227.824 222.364 227.128C222.364 226.276 223.072 225.724 224.164 225.724C225.136 225.724 225.748 226.228 225.808 227.092H226.996C226.9 225.592 225.832 224.668 224.176 224.668C222.388 224.668 221.188 225.676 221.188 227.164ZM230.081 233.5V228.58H231.233V227.632H230.081V225.796H228.953V227.632H227.801V228.58H228.953V233.5H230.081ZM233.891 233.644C234.839 233.644 235.643 233.224 235.943 232.552L236.063 233.5H237.023V229.816C237.023 228.232 236.039 227.464 234.587 227.464C233.075 227.464 232.067 228.268 232.067 229.492H233.051C233.051 228.784 233.591 228.364 234.539 228.364C235.331 228.364 235.919 228.712 235.919 229.696V229.864L234.071 230.008C232.691 230.116 231.887 230.788 231.887 231.868C231.887 232.936 232.631 233.644 233.891 233.644ZM234.215 232.768C233.483 232.768 233.027 232.456 233.027 231.832C233.027 231.256 233.435 230.872 234.431 230.776L235.931 230.656V230.968C235.931 232.072 235.283 232.768 234.215 232.768ZM239.714 233.5V230.392C239.714 229.252 240.326 228.496 241.382 228.496C242.246 228.496 242.798 228.976 242.798 230.164V233.5H243.926V229.912C243.926 228.412 243.218 227.464 241.67 227.464C240.842 227.464 240.098 227.86 239.726 228.532L239.606 227.632H238.586V233.5H239.714ZM247.84 233.644C248.776 233.644 249.568 233.236 249.952 232.432L250.048 233.5H251.056V224.668H249.94V228.58C249.544 227.86 248.788 227.464 247.888 227.464C246.148 227.464 245.104 228.784 245.104 230.584C245.104 232.372 246.136 233.644 247.84 233.644ZM248.068 232.624C246.916 232.624 246.244 231.76 246.244 230.548C246.244 229.348 246.916 228.484 248.068 228.484C249.22 228.484 249.928 229.348 249.928 230.548C249.928 231.772 249.22 232.624 248.068 232.624ZM254.399 233.644C255.347 233.644 256.151 233.224 256.451 232.552L256.571 233.5H257.531V229.816C257.531 228.232 256.547 227.464 255.095 227.464C253.583 227.464 252.575 228.268 252.575 229.492H253.559C253.559 228.784 254.099 228.364 255.047 228.364C255.839 228.364 256.427 228.712 256.427 229.696V229.864L254.579 230.008C253.199 230.116 252.395 230.788 252.395 231.868C252.395 232.936 253.139 233.644 254.399 233.644ZM254.723 232.768C253.991 232.768 253.535 232.456 253.535 231.832C253.535 231.256 253.943 230.872 254.939 230.776L256.439 230.656V230.968C256.439 232.072 255.791 232.768 254.723 232.768ZM262.453 227.584C262.225 227.536 262.057 227.512 261.853 227.512C261.049 227.512 260.461 227.92 260.221 228.532L260.149 227.644H259.093V233.5H260.221V230.392C260.221 229.264 260.881 228.616 261.949 228.616H262.453V227.584ZM265.652 233.644C266.588 233.644 267.38 233.236 267.764 232.432L267.86 233.5H268.868V224.668H267.752V228.58C267.356 227.86 266.6 227.464 265.7 227.464C263.96 227.464 262.916 228.784 262.916 230.584C262.916 232.372 263.948 233.644 265.652 233.644ZM265.88 232.624C264.728 232.624 264.056 231.76 264.056 230.548C264.056 229.348 264.728 228.484 265.88 228.484C267.032 228.484 267.74 229.348 267.74 230.548C267.74 231.772 267.032 232.624 265.88 232.624ZM28.4463 261.5C31.0143 261.5 32.7423 259.748 32.7423 257.168C32.7423 254.576 30.9903 252.824 28.3983 252.824H25.5783V261.5H28.4463ZM28.3143 253.904C30.2943 253.904 31.5183 255.152 31.5183 257.168C31.5183 259.16 30.2943 260.408 28.3623 260.408H26.7543V253.904H28.3143ZM36.5785 261.644C38.0305 261.644 39.0145 260.936 39.3025 259.676H38.2465C38.0545 260.348 37.4785 260.708 36.6025 260.708C35.4865 260.708 34.8385 260.024 34.7545 258.788L39.2905 258.776V258.356C39.2905 256.616 38.1985 255.464 36.5305 255.464C34.8265 255.464 33.6625 256.736 33.6625 258.572C33.6625 260.396 34.8505 261.644 36.5785 261.644ZM36.5305 256.412C37.5265 256.412 38.1625 257.06 38.1625 258.032H34.7785C34.9225 257 35.5465 256.412 36.5305 256.412ZM44.5224 261.5H45.6504V255.632H41.9184V254.696C41.9184 254.06 42.0984 253.688 42.7824 253.688H43.2864V252.716C43.0704 252.68 42.8064 252.668 42.5904 252.668C41.5704 252.668 40.7904 253.256 40.7904 254.696V255.632H39.9264V256.58H40.7904V261.5H41.9184V256.58H44.5224V261.5ZM45.0864 254.192C45.4824 254.192 45.7944 253.88 45.7944 253.472C45.7944 253.064 45.4824 252.752 45.0864 252.752C44.6784 252.752 44.3664 253.064 44.3664 253.472C44.3664 253.88 44.6784 254.192 45.0864 254.192ZM48.3815 261.5V258.392C48.3815 257.252 48.9935 256.496 50.0495 256.496C50.9135 256.496 51.4655 256.976 51.4655 258.164V261.5H52.5935V257.912C52.5935 256.412 51.8855 255.464 50.3375 255.464C49.5095 255.464 48.7655 255.86 48.3935 256.532L48.2735 255.632H47.2535V261.5H48.3815ZM54.7078 254.24C55.1158 254.24 55.4518 253.904 55.4518 253.496C55.4518 253.076 55.1158 252.752 54.7078 252.752C54.2998 252.752 53.9638 253.076 53.9638 253.496C53.9638 253.904 54.2998 254.24 54.7078 254.24ZM54.1558 261.5H55.2838V255.632H54.1558V261.5ZM58.5775 261.5V256.58H59.7295V255.632H58.5775V253.796H57.4495V255.632H56.2975V256.58H57.4495V261.5H58.5775ZM61.2938 254.24C61.7018 254.24 62.0378 253.904 62.0378 253.496C62.0378 253.076 61.7018 252.752 61.2938 252.752C60.8858 252.752 60.5498 253.076 60.5498 253.496C60.5498 253.904 60.8858 254.24 61.2938 254.24ZM60.7418 261.5H61.8698V255.632H60.7418V261.5ZM63.1234 258.56C63.1234 260.372 64.4194 261.644 66.1834 261.644C67.9354 261.644 69.2314 260.372 69.2314 258.56C69.2314 256.748 67.9354 255.476 66.1834 255.476C64.4194 255.476 63.1234 256.748 63.1234 258.56ZM64.2634 258.56C64.2634 257.336 65.0434 256.484 66.1834 256.484C67.3114 256.484 68.1034 257.336 68.1034 258.56C68.1034 259.784 67.3114 260.636 66.1834 260.636C65.0434 260.636 64.2634 259.784 64.2634 258.56ZM71.6081 261.5V258.392C71.6081 257.252 72.2201 256.496 73.2761 256.496C74.1401 256.496 74.6921 256.976 74.6921 258.164V261.5H75.8201V257.912C75.8201 256.412 75.1121 255.464 73.5641 255.464C72.7361 255.464 71.9921 255.86 71.6201 256.532L71.5001 255.632H70.4801V261.5H71.6081ZM78.2224 261.644C78.6784 261.644 79.0744 261.26 79.0744 260.804C79.0744 260.336 78.6784 259.952 78.2224 259.952C77.7544 259.952 77.3584 260.336 77.3584 260.804C77.3584 261.26 77.7544 261.644 78.2224 261.644Z" fill="#A2A2A2"/>
<rect x="24.5703" y="32.5" width="48" height="48" rx="4" fill="#4C7FBD"/>
<mask id="mask1_1476_256" style="mask-type:alpha" maskUnits="userSpaceOnUse" x="36" y="44" width="25" height="25">
<rect x="36.5703" y="44.5" width="24" height="24" fill="#D9D9D9"/>
</mask>
<g mask="url(#mask1_1476_256)">
<path d="M49.5703 64.5C49.5703 62.9833 49.2826 61.5583 48.7073 60.225C48.1326 58.8917 47.3453 57.725 46.3453 56.725C45.3453 55.725 44.1786 54.9377 42.8453 54.363C41.512 53.7877 40.087 53.5 38.5703 53.5V50.5C38.5703 49.95 38.7663 49.4793 39.1583 49.088C39.5496 48.696 40.0203 48.5 40.5703 48.5H56.5703C57.1203 48.5 57.5913 48.696 57.9833 49.088C58.3746 49.4793 58.5703 49.95 58.5703 50.5V62.5C58.5703 63.05 58.3746 63.521 57.9833 63.913C57.5913 64.3043 57.1203 64.5 56.5703 64.5H49.5703ZM45.5703 64.5C45.5703 62.55 44.8913 60.8957 43.5333 59.537C42.1746 58.179 40.5203 57.5 38.5703 57.5V55.5C39.8203 55.5 40.9913 55.7373 42.0833 56.212C43.1746 56.6873 44.1246 57.329 44.9333 58.137C45.7413 58.9457 46.383 59.896 46.8583 60.988C47.333 62.0793 47.5703 63.25 47.5703 64.5H45.5703ZM41.5703 64.5C41.5703 63.6667 41.2786 62.9583 40.6953 62.375C40.112 61.7917 39.4036 61.5 38.5703 61.5V59.5C39.9536 59.5 41.1326 59.9873 42.1073 60.962C43.0826 61.9373 43.5703 63.1167 43.5703 64.5H41.5703ZM51.3203 56.3L55.3203 54L51.3203 51.7L47.3203 54L51.3203 56.3ZM51.3203 59.35L54.0703 57.75V55.65L51.3203 57.25L48.5703 55.65V57.75L51.3203 59.35Z" fill="white"/>
</g>
</svg>
